<svg id="_006-connection" data-name="006-connection" xmlns="http://www.w3.org/2000/svg" width="63.874" height="63.877" viewBox="0 0 63.874 63.877">
  <g id="Group_42" data-name="Group 42" transform="translate(0 0)">
    <path id="Path_18" data-name="Path 18" d="M49.517,34.078,42.61,25.285a14.839,14.839,0,0,0,4.18-9.322h10.7v1.171a5.321,5.321,0,1,0,2.128,0V14.9a1.064,1.064,0,0,0-1.064-1.064H46.79a14.8,14.8,0,0,0-3.118-8.093l1.484-1.484H57.682a3.193,3.193,0,1,0,0-2.128H44.716a1.064,1.064,0,0,0-.752.312L42.245,4.16A14.866,14.866,0,0,0,17.1,13.835H8.163L4.685,6.01a3.182,3.182,0,1,0-2.2.283L6.5,15.332a1.064,1.064,0,0,0,.973.631H17.1a14.833,14.833,0,0,0,4.1,9.235l-8.984,8.984A10.635,10.635,0,1,0,9.071,55.217q.263.04.528.066v5.375a1.064,1.064,0,0,0,1.064,1.064h9.773a3.192,3.192,0,1,0,0-2.128H11.727V55.282A10.635,10.635,0,0,0,14.6,34.817l8.194-8.194a14.8,14.8,0,0,0,18.217.073l5.9,7.515a14.9,14.9,0,1,0,2.6-.133Zm12.225-11.73a3.192,3.192,0,1,1-3.192-3.192A3.192,3.192,0,0,1,61.742,22.348ZM60.678,2.129a1.064,1.064,0,1,1-1.064,1.064A1.064,1.064,0,0,1,60.678,2.129ZM3.214,4.258A1.064,1.064,0,1,1,4.278,3.194,1.064,1.064,0,0,1,3.214,4.258ZM23.433,59.593a1.064,1.064,0,1,1-1.064,1.064A1.064,1.064,0,0,1,23.433,59.593ZM14.92,52.057a8.441,8.441,0,0,1-8.513,0V50.016a4.257,4.257,0,0,1,8.513,0ZM8.535,41.5a2.128,2.128,0,1,1,2.128,2.128A2.128,2.128,0,0,1,8.535,41.5Zm8.513-2.457a8.513,8.513,0,0,1,0,11.262v-.292a6.385,6.385,0,0,0-3.306-5.59,4.257,4.257,0,1,0-6.158,0,6.385,6.385,0,0,0-3.305,5.59v.292a8.513,8.513,0,1,1,12.77-11.262ZM39.4,25.247a12.679,12.679,0,0,1-14.9,0v-2.58a3.512,3.512,0,0,1,3.512-3.512h2.362l-1.544,3.861a1.064,1.064,0,0,0,.236,1.148l2.128,2.128a1.064,1.064,0,0,0,1.5,0l2.128-2.128a1.064,1.064,0,0,0,.236-1.148l-1.543-3.861h2.366A3.512,3.512,0,0,1,39.4,22.667ZM32.1,7.966a1.059,1.059,0,0,0-.1.211c-.538,1.614-3.446,2.226-5.317,2.4.285-3.566,1.964-5.259,5.262-5.259,3.02,0,4.682,1.428,5.158,4.408L33.558,7.6A1.064,1.064,0,0,0,32.1,7.966ZM33.414,10l3.8,2.283c-.427,2.605-3.637,4.747-5.271,4.747a6.7,6.7,0,0,1-5.173-4.312C28.6,12.565,31.884,12.013,33.414,10Zm-.588,13.158-.879.88-.879-.88.879-2.2Zm3.764-6.079a7.388,7.388,0,0,0,2.806-5.37c0-7.036-4.051-8.513-7.449-8.513S24.5,4.671,24.5,11.707A7.387,7.387,0,0,0,27.3,17.08a5.622,5.622,0,0,0-4.934,5.588v.647a12.77,12.77,0,1,1,19.155,0v-.647A5.622,5.622,0,0,0,36.589,17.076ZM56.422,59.3a12.679,12.679,0,0,1-14.9,0V56.72a3.512,3.512,0,0,1,3.512-3.512H47.4l-1.544,3.861a1.064,1.064,0,0,0,.236,1.148l2.128,2.128a1.064,1.064,0,0,0,1.5,0l2.128-2.128a1.064,1.064,0,0,0,.236-1.148l-1.543-3.861H52.91a3.512,3.512,0,0,1,3.512,3.512ZM50.44,44.051h0l3.8,2.283c-.427,2.606-3.637,4.748-5.271,4.748A6.7,6.7,0,0,1,43.8,46.768C45.621,46.618,48.911,46.066,50.44,44.051Zm-6.73.583h0c.285-3.566,1.963-5.259,5.262-5.259,3.02,0,4.682,1.428,5.158,4.408l-3.546-2.128a1.064,1.064,0,0,0-1.557.576C48.489,43.844,45.582,44.456,43.71,44.634Zm6.141,12.575-.879.88-.879-.88.879-2.2Zm8.7.162v-.65a5.622,5.622,0,0,0-4.934-5.591,7.388,7.388,0,0,0,2.806-5.37c0-7.036-4.051-8.513-7.449-8.513s-7.449,1.477-7.449,8.513a7.387,7.387,0,0,0,2.806,5.373A5.622,5.622,0,0,0,39.4,56.72v.647a12.768,12.768,0,1,1,19.155,0Z" transform="translate(-0.011 0)" fill="#f06c63"/>
  </g>
</svg>
