<svg xmlns="http://www.w3.org/2000/svg" width="52.827" height="52.827" viewBox="0 0 52.827 52.827">
  <path id="chazon_page" data-name="chazon page" d="M42.262,21.131A10.565,10.565,0,1,0,32.7,6.105L29.868,5.061a4.274,4.274,0,0,0,.067-.659,4.441,4.441,0,1,0-.673,2.312l2.825,1.043a10.373,10.373,0,0,0,.144,6.109l-9.683,4.1A10.515,10.515,0,0,0,9.483,13.017L7.047,7.9A4.38,4.38,0,1,0,4.4,8.8a4.329,4.329,0,0,0,1.058-.144l2.432,5.113a10.547,10.547,0,0,0-.564,17.892l-1.61,2.9A4.357,4.357,0,0,0,4.4,34.338a4.455,4.455,0,1,0,2.855,1.08l1.614-2.9a10.477,10.477,0,0,0,10.755-1.253l3.465,3.812a10.515,10.515,0,0,0-2.842,7.186,10.633,10.633,0,0,0,.131,1.58L16.3,44.81a4.376,4.376,0,1,0,.424,1.854c0-.049-.013-.094-.014-.143l4.07-.965a10.561,10.561,0,1,0,19.337-8.29L45.293,33.9a4.489,4.489,0,1,0-.956-1.479l-5.184,3.37a10.624,10.624,0,0,0-3.935-3.125l4.3-11.913a10.528,10.528,0,0,0,2.746.375ZM25.533,7.044A2.641,2.641,0,1,1,28.175,4.4,2.645,2.645,0,0,1,25.533,7.044ZM1.761,4.4A2.641,2.641,0,1,1,4.4,7.044,2.645,2.645,0,0,1,1.761,4.4ZM4.4,41.381A2.641,2.641,0,1,1,7.044,38.74,2.645,2.645,0,0,1,4.4,41.381Zm7.924,7.924a2.641,2.641,0,1,1,2.641-2.641A2.645,2.645,0,0,1,12.326,49.305Zm36.1-21.131a2.641,2.641,0,1,1-2.641,2.641A2.645,2.645,0,0,1,48.425,28.174ZM37.077,17.665a4.415,4.415,0,0,1,4.3-3.578h1.761a4.415,4.415,0,0,1,4.3,3.578,8.739,8.739,0,0,1-10.37,0Zm5.185-5.339A2.641,2.641,0,1,1,44.9,9.685,2.645,2.645,0,0,1,42.262,12.326Zm0-10.565a8.791,8.791,0,0,1,6.646,14.562A6.237,6.237,0,0,0,45.4,12.761a4.4,4.4,0,1,0-6.279,0,6.237,6.237,0,0,0-3.506,3.561A8.791,8.791,0,0,1,42.262,1.761ZM4.4,22.892A8.8,8.8,0,1,1,19.84,28.663a6.238,6.238,0,0,0-3.511-3.576,4.4,4.4,0,1,0-6.28,0,6.235,6.235,0,0,0-3.5,3.547A8.758,8.758,0,0,1,4.4,22.892Zm6.146-.88a2.641,2.641,0,1,1,2.641,2.641A2.645,2.645,0,0,1,10.548,22.011ZM8.007,29.98a4.414,4.414,0,0,1,4.3-3.567H14.07A4.413,4.413,0,0,1,18.376,30,8.737,8.737,0,0,1,8.007,29.98ZM25.616,49.35a4.414,4.414,0,0,1,4.3-3.567h1.761a4.413,4.413,0,0,1,4.306,3.59,8.737,8.737,0,0,1-10.369-.023ZM30.8,44.023a2.641,2.641,0,1,1,2.641-2.641A2.645,2.645,0,0,1,30.8,44.023Zm8.822-1.761a8.761,8.761,0,0,1-2.171,5.772,6.238,6.238,0,0,0-3.511-3.576,4.4,4.4,0,1,0-6.28,0A6.235,6.235,0,0,0,24.157,48a8.8,8.8,0,1,1,15.463-5.743ZM33.562,32.071A10.42,10.42,0,0,0,24.4,33.891L20.93,30.078a10.489,10.489,0,0,0,2.307-10.487l9.683-4.1a10.623,10.623,0,0,0,4.94,4.671Zm0,0" transform="translate(0)" fill="#f26b5f"/>
</svg>
