<svg xmlns="http://www.w3.org/2000/svg" width="50.863" height="50.844" viewBox="0 0 50.863 50.844">
  <g id="chazon_page" data-name="chazon page" transform="translate(0 -0.099)">
    <g id="Group_890" data-name="Group 890" transform="translate(3.974 40.611)">
      <g id="Group_889" data-name="Group 889">
        <rect id="Rectangle_665" data-name="Rectangle 665" width="1.589" height="1.589" fill="#f26b5f"/>
      </g>
    </g>
    <g id="Group_892" data-name="Group 892" transform="translate(15.1 19.146)">
      <g id="Group_891" data-name="Group 891">
        <path id="Path_144" data-name="Path 144" d="M172.59,211.359l-.795-1.589a.8.8,0,0,0-.4-.374l-5.277-2.282L165.7,205.8a6.525,6.525,0,0,0,2.2-5.208V194.23a.8.8,0,0,0-.233-.562,8.706,8.706,0,0,0-10.66,0,.8.8,0,0,0-.233.562v6.358a6.525,6.525,0,0,0,2.2,5.207l-.425,1.318-5.271,2.282a.8.8,0,0,0-.4.374l-.795,1.589a.794.794,0,0,0-.083.355v11.921H153.6V211.9l.58-1.163,4.785-2.072,2.582,2.582v4.439h1.589v-4.439l2.582-2.582,4.785,2.071.581,1.163v11.733h1.589V211.714A.794.794,0,0,0,172.59,211.359ZM158.365,194.6a7.359,7.359,0,0,1,7.947,0v3.489c-.4-.1-.795-.3-.795-.68a.8.8,0,0,0-.795-.795h-4.768a.8.8,0,0,0-.795.795c0,.377-.4.575-.795.68Zm3.974,15.195-2.255-2.255.3-.94a5.7,5.7,0,0,0,3.9,0l.3.94Zm0-4.439c-2.932,0-3.974-2.569-3.974-4.768v-.869a2.821,2.821,0,0,0,2.24-1.515h3.468a2.821,2.821,0,0,0,2.24,1.515v.869C166.312,202.788,165.271,205.356,162.338,205.356Z" transform="translate(-152.007 -191.839)" fill="#f26b5f"/>
      </g>
    </g>
    <g id="Group_894" data-name="Group 894" transform="translate(19.074 46.174)">
      <g id="Group_893" data-name="Group 893">
        <rect id="Rectangle_666" data-name="Rectangle 666" width="1.589" height="4.768" fill="#f26b5f"/>
      </g>
    </g>
    <g id="Group_896" data-name="Group 896" transform="translate(30.2 46.174)">
      <g id="Group_895" data-name="Group 895">
        <rect id="Rectangle_667" data-name="Rectangle 667" width="1.589" height="4.768" fill="#f26b5f"/>
      </g>
    </g>
    <g id="Group_898" data-name="Group 898" transform="translate(15.894 0.099)">
      <g id="Group_897" data-name="Group 897" transform="translate(0 0)">
        <path id="Path_145" data-name="Path 145" d="M178.92,12.325,170.178.4A.826.826,0,0,0,168.9.4l-8.742,11.921a.795.795,0,0,0,.641,1.265h3.179v3.179h1.589V12.8a.8.8,0,0,0-.795-.795h-2.4l7.173-9.782L176.71,12h-2.4a.8.8,0,0,0-.795.795v3.974H175.1V13.591h3.179a.795.795,0,0,0,.641-1.265Z" transform="translate(-159.999 -0.099)" fill="#f26b5f"/>
      </g>
    </g>
    <g id="Group_900" data-name="Group 900" transform="translate(31.789 11.225)">
      <g id="Group_899" data-name="Group 899">
        <path id="Path_146" data-name="Path 146" d="M338.92,124.325,330.178,112.4a.826.826,0,0,0-1.283,0l-8.742,11.921a.795.795,0,0,0,.641,1.265h3.179v5.563h1.589V124.8a.8.8,0,0,0-.795-.795h-2.4l7.173-9.782L336.709,124h-7.173v1.589h3.974v14.3H335.1v-14.3h3.179a.795.795,0,0,0,.641-1.265Z" transform="translate(-319.999 -112.099)" fill="#f26b5f"/>
      </g>
    </g>
    <g id="Group_902" data-name="Group 902" transform="translate(0 11.225)">
      <g id="Group_901" data-name="Group 901" transform="translate(0)">
        <path id="Path_147" data-name="Path 147" d="M18.921,124.325,10.179,112.4a.826.826,0,0,0-1.283,0L.154,124.325A.795.795,0,0,0,.8,125.591H3.974v14.3H5.564v-14.3H9.537V124H2.364l7.173-9.782L16.71,124h-2.4a.8.8,0,0,0-.795.795v6.358H15.1v-5.563h3.179a.795.795,0,0,0,.641-1.265Z" transform="translate(0 -112.099)" fill="#f26b5f"/>
      </g>
    </g>
    <g id="Group_904" data-name="Group 904" transform="translate(13.511 31.869)">
      <g id="Group_903" data-name="Group 903">
        <rect id="Rectangle_668" data-name="Rectangle 668" width="1.589" height="1.589" fill="#f26b5f"/>
      </g>
    </g>
    <g id="Group_906" data-name="Group 906" transform="translate(35.763 31.869)">
      <g id="Group_905" data-name="Group 905">
        <rect id="Rectangle_669" data-name="Rectangle 669" width="1.589" height="1.589" fill="#f26b5f"/>
      </g>
    </g>
    <g id="Group_908" data-name="Group 908" transform="translate(45.3 40.611)">
      <g id="Group_907" data-name="Group 907">
        <rect id="Rectangle_670" data-name="Rectangle 670" width="1.589" height="1.589" fill="#f26b5f"/>
      </g>
    </g>
  </g>
</svg>
