<svg xmlns="http://www.w3.org/2000/svg" width="82.388" height="54.137" viewBox="0 0 82.388 54.137">
  <g id="_002-handshake" data-name="002-handshake" transform="translate(0 -1)">
    <g id="Group_41" data-name="Group 41" transform="translate(0 1)">
      <path id="Path_8" data-name="Path 8" d="M28.582,87.727l-1.026.5a5.35,5.35,0,0,1-4.1.235l-1.715-.605a1.274,1.274,0,0,0-.3-.151L10.878,84.095a1.527,1.527,0,0,0-1.934.942L.083,110.845a1.516,1.516,0,0,0,.942,1.934l10.542,3.615a1.748,1.748,0,0,0,.488.084,1.536,1.536,0,0,0,1.446-1.026L21.857,91.14l.572.2a8.483,8.483,0,0,0,6.473-.37l1.026-.5A5.34,5.34,0,0,1,34,90.215L53.382,96.89a3.968,3.968,0,0,1-1.345,2.287c-.824.572-2.051.572-3.665.017L39.73,96.234a1.519,1.519,0,0,0-1.211.1,1.6,1.6,0,0,0-.757.958c-.017.05-1.211,4.523-5.027,6.574-2.4,1.295-5.4,1.345-8.911.151a1.521,1.521,0,1,0-.992,2.875,17.671,17.671,0,0,0,5.683,1.042,11.705,11.705,0,0,0,5.649-1.379A13.981,13.981,0,0,0,40.15,99.6l7.213,2.472c2.572.891,4.725.757,6.389-.4,2.673-1.85,2.808-5.6,2.825-5.767a1.525,1.525,0,0,0-1.026-1.48l-20.58-7.1A8.51,8.51,0,0,0,28.582,87.727ZM11.13,113.014l-7.667-2.623,7.852-22.917L18.982,90.1Z" transform="translate(0 -84.014)" fill="#f06c63"/>
      <path id="Path_9" data-name="Path 9" d="M148.793,115.569l-3.615,3.329a46.188,46.188,0,0,1-10.979,7.5l-19.184,9.382a1.711,1.711,0,0,1-1.5-3.077l.235-.118h0l10.492-5.128a1.523,1.523,0,1,0-1.328-2.741l-10.492,5.128h0l-5.279,2.589a1.7,1.7,0,0,1-2.287-.79,1.654,1.654,0,0,1-.084-1.295,1.7,1.7,0,0,1,.857-.975l3.985-1.95h0l11.4-5.582a1.523,1.523,0,0,0-1.328-2.741l-11.416,5.6h0l-.437.219-5.448,2.673a1.654,1.654,0,0,1-1.295.084,1.7,1.7,0,0,1-.185-3.144l1.883-.925h0l3.85-1.883,1.076-.521h0l8.844-4.338a1.523,1.523,0,1,0-1.328-2.741l-9.584,4.691-4.187,2.051a1.717,1.717,0,0,1-2.287-.79,1.654,1.654,0,0,1-.084-1.295,1.7,1.7,0,0,1,.857-.975l7.314-3.581a1.523,1.523,0,0,0-1.328-2.741l-7.314,3.581a4.685,4.685,0,0,0-2.4,2.724,4.7,4.7,0,0,0,1.681,5.364,4.77,4.77,0,0,0-.5,4.994,4.685,4.685,0,0,0,2.724,2.4,4.761,4.761,0,0,0,1.513.252,4.586,4.586,0,0,0,.488,2.2,4.759,4.759,0,0,0,4.271,2.657,4.622,4.622,0,0,0,2.085-.488l1.076-.521a4.913,4.913,0,0,0,.454,1.665,4.759,4.759,0,0,0,4.271,2.657,4.622,4.622,0,0,0,2.085-.488l19.184-9.382a49.222,49.222,0,0,0,11.7-7.986l4.287-3.951,9.819-4.809a1.521,1.521,0,0,0,.706-2.034l-12-24.464a1.528,1.528,0,0,0-2.034-.706L138,90.046a1.521,1.521,0,0,0-.706,2.034Zm-.807-27,10.643,21.774-7.28,3.564L140.706,92.131Z" transform="translate(-79.825 -84.837)" fill="#f06c63"/>
    </g>
  </g>
</svg>
