<svg xmlns="http://www.w3.org/2000/svg" width="15.776" height="15.539" viewBox="0 0 15.776 15.539">
  <path id="Path_117" data-name="Path 117" d="M283.233,416.405H275.2a3.878,3.878,0,0,0-3.873,3.874v7.791a3.878,3.878,0,0,0,3.873,3.874h8.028a3.879,3.879,0,0,0,3.874-3.874v-7.791A3.879,3.879,0,0,0,283.233,416.405Zm3.2,11.665a3.2,3.2,0,0,1-3.2,3.2h-2.055V426.19h1.732l.33-2.162h-2.061v-1.4a1.081,1.081,0,0,1,1.211-1.167h.938v-1.839a11.354,11.354,0,0,0-1.664-.146,2.63,2.63,0,0,0-2.807,2.909v1.647h-1.888v2.162h1.888v5.078H275.2a3.2,3.2,0,0,1-3.2-3.2v-7.791a3.2,3.2,0,0,1,3.2-3.2h8.028a3.2,3.2,0,0,1,3.2,3.2Z" transform="translate(-271.331 -416.405)" fill="#fff"/>
</svg>
