<svg xmlns="http://www.w3.org/2000/svg" width="16" height="16" viewBox="0 0 16 16">
  <g id="Icon_feather-instagram" data-name="Icon feather-instagram" transform="translate(-3 -3)">
    <g id="Path_129" data-name="Path 129" fill="none" stroke-linecap="round" stroke-linejoin="round">
      <path d="M7,3h8a4,4,0,0,1,4,4v8a4,4,0,0,1-4,4H7a4,4,0,0,1-4-4V7A4,4,0,0,1,7,3Z" stroke="none"/>
      <path d="M 7 4 C 5.345790863037109 4 4 5.345790863037109 4 7 L 4 15 C 4 16.65420913696289 5.345790863037109 18 7 18 L 15 18 C 16.65420913696289 18 18 16.65420913696289 18 15 L 18 7 C 18 5.345790863037109 16.65420913696289 4 15 4 L 7 4 M 7 3 L 15 3 C 17.20914077758789 3 19 4.790859222412109 19 7 L 19 15 C 19 17.20914077758789 17.20914077758789 19 15 19 L 7 19 C 4.790859222412109 19 3 17.20914077758789 3 15 L 3 7 C 3 4.790859222412109 4.790859222412109 3 7 3 Z" stroke="none" fill="#fff"/>
    </g>
    <g id="Path_130" data-name="Path 130" transform="translate(-4.23 -4.17)" fill="none" stroke-linecap="round" stroke-linejoin="round">
      <path d="M18.43,14.666a3.2,3.2,0,1,1-2.7-2.7,3.2,3.2,0,0,1,2.7,2.7Z" stroke="none"/>
      <path d="M 15.26366138458252 11.9348258972168 C 14.06872749328613 11.9348258972168 12.95553207397461 12.60541534423828 12.40646934509277 13.69628715515137 C 11.78580856323242 14.92940616607666 12.02590942382812 16.42154693603516 13.00207901000977 17.3977165222168 C 13.97824859619141 18.37387657165527 15.47038745880127 18.61399078369141 16.70351028442383 17.99332618713379 C 17.93663024902344 17.37266540527344 18.63270950317383 16.03116607666016 18.43021011352539 14.66558647155762 C 18.22343826293945 13.27120590209961 17.12858963012695 12.17635726928711 15.73420906066895 11.9695873260498 C 15.57668018341064 11.94622611999512 15.41947937011719 11.9348258972168 15.26366138458252 11.9348258972168 M 15.26365947723389 10.9348258972168 C 15.46927928924561 10.9348258972168 15.6769495010376 10.95015716552734 15.88089942932129 10.98040580749512 C 16.77884864807129 11.11355590820312 17.59276962280273 11.52322578430176 18.23466873168945 12.16512680053711 C 18.87656784057617 12.80702590942383 19.28623962402344 13.62094688415527 19.41938781738281 14.51890659332275 C 19.68572998046875 16.31499671936035 18.77497863769531 18.07022666931152 17.15309906005859 18.88656616210938 C 16.57015991210938 19.17996597290039 15.9175386428833 19.33505630493164 15.26576900482178 19.33505630493164 C 14.14334869384766 19.33505630493164 13.08829879760742 18.89814758300781 12.29496955871582 18.10482788085938 C 11.01105880737305 16.82090759277344 10.6968994140625 14.86857604980469 11.51322937011719 13.24669647216797 C 12.23097991943359 11.82068634033203 13.66805839538574 10.9348258972168 15.26365947723389 10.9348258972168 Z" stroke="none" fill="#fff"/>
    </g>
    <path id="Path_131" data-name="Path 131" d="M26.25,9.75h0" transform="translate(-10.85 -3.15)" fill="none" stroke="#fff" stroke-linecap="round" stroke-linejoin="round" stroke-width="1"/>
  </g>
</svg>
