<svg xmlns="http://www.w3.org/2000/svg" width="16" height="16" viewBox="0 0 16 16">
  <g id="Group_868" data-name="Group 868" transform="translate(-323 -142)">
    <path id="Icon_awesome-linkedin-in" data-name="Icon awesome-linkedin-in" d="M2.109,9.424H.156V3.133H2.109Zm-.978-7.15A1.137,1.137,0,1,1,2.263,1.132,1.141,1.141,0,0,1,1.131,2.274Zm8.29,7.15H7.472V6.362c0-.73-.015-1.666-1.016-1.666s-1.171.793-1.171,1.613V9.424H3.333V3.133H5.207v.858h.027A2.053,2.053,0,0,1,7.083,2.975c1.977,0,2.341,1.3,2.341,2.993V9.424Z" transform="translate(326.288 145.057)" fill="#fff"/>
    <g id="Rectangle_660" data-name="Rectangle 660" transform="translate(323 142)" fill="none" stroke="#fff" stroke-width="0.7">
      <rect width="16" height="16" rx="4" stroke="none"/>
      <rect x="0.35" y="0.35" width="15.3" height="15.3" rx="3.65" fill="none"/>
    </g>
  </g>
</svg>
