<svg xmlns="http://www.w3.org/2000/svg" width="58.484" height="42.534" viewBox="0 0 58.484 42.534">
  <g id="Group_878" data-name="Group 878" transform="translate(-420.622 -5715.954)">
    <path id="Path_20" data-name="Path 20" d="M13.258,42.534a12.594,12.594,0,0,0,9.649-4.4,15,15,0,0,0,3.019-4.956,16.348,16.348,0,0,0,1.117-5.874,23.457,23.457,0,0,0-4.07-12.635,36.088,36.088,0,0,0-10.9-10.864Q6.3,0,3.019,0A3.062,3.062,0,0,0,.853.789,2.718,2.718,0,0,0,0,2.888q0,1.97,2.494,3.283a31.5,31.5,0,0,1,8.729,6.1q2.625,2.82,2.625,4.134,0,1.248-1.968,1.51l-.854.131-.984.066a10.646,10.646,0,0,0-6.925,3.97A12.447,12.447,0,0,0,.459,30.128a11.951,11.951,0,0,0,3.281,8.4,12.459,12.459,0,0,0,9.518,4" transform="translate(479.105 5758.487) rotate(180)" fill="#f26b5f"/>
    <path id="Path_21" data-name="Path 21" d="M13.258,42.534a12.594,12.594,0,0,0,9.649-4.4,15.023,15.023,0,0,0,3.019-4.956,16.32,16.32,0,0,0,1.117-5.874,23.457,23.457,0,0,0-4.07-12.635,36.088,36.088,0,0,0-10.9-10.864Q6.3,0,3.018,0A3.063,3.063,0,0,0,.853.789,2.718,2.718,0,0,0,0,2.888q0,1.97,2.494,3.283a31.484,31.484,0,0,1,8.729,6.1q2.625,2.82,2.625,4.134,0,1.248-1.969,1.51l-.853.131-.984.066a10.646,10.646,0,0,0-6.925,3.97A12.447,12.447,0,0,0,.459,30.128a11.951,11.951,0,0,0,3.281,8.4,12.459,12.459,0,0,0,9.518,4" transform="translate(447.664 5758.487) rotate(180)" fill="#f26b5f"/>
  </g>
</svg>
