<svg xmlns="http://www.w3.org/2000/svg" width="16" height="16" viewBox="0 0 16 16">
  <g id="Group_869" data-name="Group 869" transform="translate(-364 -142)">
    <g id="Rectangle_660" data-name="Rectangle 660" transform="translate(364 142)" fill="none" stroke="#fff" stroke-width="0.7">
      <rect width="16" height="16" rx="4" stroke="none"/>
      <rect x="0.35" y="0.35" width="15.3" height="15.3" rx="3.65" fill="none"/>
    </g>
    <path id="Icon_simple-tiktok" data-name="Icon simple-tiktok" d="M6.931.008C7.477,0,8.019,0,8.561,0A2.6,2.6,0,0,0,9.29,1.737a2.938,2.938,0,0,0,1.767.746V4.162a4.46,4.46,0,0,1-1.75-.4,5.148,5.148,0,0,1-.675-.387c0,1.217,0,2.433-.008,3.646a3.182,3.182,0,0,1-.562,1.642A3.1,3.1,0,0,1,5.6,10a3.038,3.038,0,0,1-1.7-.429A3.142,3.142,0,0,1,2.377,7.187c-.008-.208-.012-.417,0-.621A3.137,3.137,0,0,1,6.011,3.783c.008.617-.017,1.233-.017,1.85a1.43,1.43,0,0,0-1.825.883,1.653,1.653,0,0,0-.058.671,1.418,1.418,0,0,0,1.458,1.2,1.4,1.4,0,0,0,1.154-.671.961.961,0,0,0,.171-.442c.042-.746.025-1.487.029-2.233,0-1.679,0-3.354.008-5.029Z" transform="translate(365.631 144.769)" fill="#fff"/>
  </g>
</svg>
