<svg xmlns="http://www.w3.org/2000/svg" width="61.611" height="55.5" viewBox="0 0 61.611 55.5">
  <path id="_005-suitcase" data-name="005-suitcase" d="M58.056,9.167H44.815V5.093A5.1,5.1,0,0,0,39.722,0H21.389A5.1,5.1,0,0,0,16.3,5.093V9.167H3.056A3.056,3.056,0,0,0,0,12.222V34.894A3.069,3.069,0,0,0,2.037,37.77V51.944A3.056,3.056,0,0,0,5.093,55H56.019a3.056,3.056,0,0,0,3.056-3.056V37.771a3.07,3.07,0,0,0,2.037-2.877V12.222A3.056,3.056,0,0,0,58.056,9.167ZM18.333,5.093a3.056,3.056,0,0,1,3.056-3.056H39.722a3.056,3.056,0,0,1,3.056,3.056V9.167H40.741V5.093a1.019,1.019,0,0,0-1.019-1.019H21.389A1.019,1.019,0,0,0,20.37,5.093V9.167H18.333ZM38.7,9.167h-16.3V6.111H38.7ZM57.037,51.944a1.019,1.019,0,0,1-1.019,1.019H5.093a1.019,1.019,0,0,1-1.019-1.019V38.12l22.407,3.09V43.8a3.056,3.056,0,0,0,3.056,3.056h2.037A3.056,3.056,0,0,0,34.63,43.8V41.21l22.407-3.09ZM32.593,43.8a1.019,1.019,0,0,1-1.019,1.019H29.537A1.019,1.019,0,0,1,28.519,43.8V37.685a1.019,1.019,0,0,1,1.019-1.019h2.037a1.019,1.019,0,0,1,1.019,1.019Zm26.481-8.9A1.019,1.019,0,0,1,58.2,35.9l-.282.039L34.63,39.154V37.685a3.056,3.056,0,0,0-3.056-3.056H29.537a3.056,3.056,0,0,0-3.056,3.056v1.469L2.914,35.9a1.019,1.019,0,0,1-.877-1.01V12.222A1.019,1.019,0,0,1,3.056,11.2h55a1.019,1.019,0,0,1,1.019,1.019Zm0,0" transform="translate(0.25 0.25)" fill="#f06c63" stroke="#f06c63" stroke-width="0.5"/>
</svg>
