<svg id="event" xmlns="http://www.w3.org/2000/svg" width="55.788" height="57.871" viewBox="0 0 55.788 57.871">
  <g id="Group_40" data-name="Group 40" transform="translate(0)">
    <g id="Group_39" data-name="Group 39">
      <path id="Path_6" data-name="Path 6" d="M58.644,6.278q-.177-.007-.355,0H53.826V2.44c0-1.534-1.464-2.44-3-2.44H46.715a2.4,2.4,0,0,0-2.65,2.44V6.275H27.331V2.44A2.4,2.4,0,0,0,24.682,0H20.568c-1.534,0-3,.906-3,2.44V6.275H13.107a5.16,5.16,0,0,0-5.3,5.014q-.005.177,0,.355v40.3c0,3.068,2.231,5.927,5.3,5.927H58.289c3.068,0,5.3-2.859,5.3-5.927v-40.3A5.16,5.16,0,0,0,58.644,6.278ZM46.715,2.789h4.323v7.67H46.715Zm-26.147,0h3.974v7.67H20.568V2.789ZM60.8,51.945c0,1.534-.976,3.138-2.51,3.138H13.107c-1.534,0-2.51-1.6-2.51-3.138V22.312H60.8Zm0-40.3v7.879H10.6V11.644a2.37,2.37,0,0,1,2.51-2.58H17.57V10.6a2.869,2.869,0,0,0,3,2.65h4.114a2.58,2.58,0,0,0,2.65-2.508q0-.071,0-.141V9.064H44.065V10.6a2.58,2.58,0,0,0,2.508,2.65q.071,0,.141,0h4.114a2.869,2.869,0,0,0,3-2.65V9.064h4.462a2.371,2.371,0,0,1,2.51,2.58Z" transform="translate(-7.804 0)" fill="#f06c63"/>
      <path id="Path_7" data-name="Path 7" d="M123.126,209.63l-1.255,6.972a1.394,1.394,0,0,0,2.022,1.464l6.275-3.277,6.275,3.277.628.139a1.324,1.324,0,0,0,.837-.279,1.4,1.4,0,0,0,.558-1.325l-1.255-6.973,5.09-4.881a1.534,1.534,0,0,0,.349-1.464,1.465,1.465,0,0,0-1.116-.906l-6.972-1.046-3.138-6.345a1.394,1.394,0,0,0-2.51,0l-3.138,6.345-6.972,1.046a1.464,1.464,0,0,0-1.116.906,1.534,1.534,0,0,0,.349,1.464Zm3.835-5.648a1.255,1.255,0,0,0,.976-.767l2.231-4.462,2.231,4.462a1.255,1.255,0,0,0,.976.767l4.95.7L134.77,208.1a1.464,1.464,0,0,0-.418,1.255l.837,4.95-4.393-2.371-.628-.139-.628.139-4.393,2.371.837-4.95a1.464,1.464,0,0,0-.418-1.255l-3.556-3.416Z" transform="translate(-102.971 -168.283)" fill="#f06c63"/>
    </g>
  </g>
</svg>
